<svg width="77" height="24" viewBox="0 0 77 24" fill="none" xmlns="http://www.w3.org/2000/svg">
<path d="M0.495859 11.96C0.495859 11.3533 0.603193 10.7607 0.817859 10.182C1.03253 9.594 1.34519 9.062 1.75586 8.586C2.17586 8.10067 2.68453 7.718 3.28186 7.438C3.87919 7.14867 4.55586 7.004 5.31186 7.004C6.20786 7.004 6.98253 7.20933 7.63586 7.62C8.28919 8.02133 8.77453 8.53933 9.09186 9.174L7.85986 10C7.67319 9.59867 7.43519 9.28133 7.14586 9.048C6.86586 8.81467 6.55786 8.65133 6.22186 8.558C5.89519 8.46467 5.57319 8.418 5.25586 8.418C4.73319 8.418 4.27586 8.52533 3.88386 8.74C3.49186 8.94533 3.16053 9.22067 2.88986 9.566C2.62853 9.91133 2.42786 10.2987 2.28786 10.728C2.15719 11.1573 2.09186 11.5867 2.09186 12.016C2.09186 12.492 2.17119 12.954 2.32986 13.402C2.48853 13.8407 2.70786 14.2327 2.98786 14.578C3.27719 14.914 3.61786 15.18 4.00986 15.376C4.40186 15.572 4.83119 15.67 5.29786 15.67C5.61519 15.67 5.94653 15.614 6.29186 15.502C6.63719 15.39 6.95453 15.2173 7.24386 14.984C7.54253 14.7413 7.77586 14.424 7.94386 14.032L9.24586 14.774C9.04053 15.2687 8.71853 15.6887 8.27986 16.034C7.85053 16.3793 7.36519 16.6407 6.82386 16.818C6.29186 16.9953 5.76453 17.084 5.24186 17.084C4.54186 17.084 3.90253 16.9393 3.32386 16.65C2.74519 16.3513 2.24586 15.9593 1.82586 15.474C1.40586 14.9793 1.07919 14.4287 0.845859 13.822C0.612526 13.206 0.495859 12.5853 0.495859 11.96ZM10.6962 17V7.06H12.2642V15.614H17.5982V17H10.6962ZM22.7422 17.07C22.0235 17.07 21.3749 16.93 20.7962 16.65C20.2175 16.37 19.7182 15.992 19.2982 15.516C18.8782 15.0307 18.5515 14.4893 18.3182 13.892C18.0942 13.2853 17.9822 12.6647 17.9822 12.03C17.9822 11.3673 18.1035 10.7373 18.3462 10.14C18.5889 9.53333 18.9249 8.99667 19.3542 8.53C19.7835 8.054 20.2875 7.68067 20.8662 7.41C21.4542 7.13 22.0889 6.99 22.7702 6.99C23.4795 6.99 24.1235 7.13467 24.7022 7.424C25.2902 7.71333 25.7895 8.10067 26.2002 8.586C26.6202 9.07133 26.9422 9.61267 27.1662 10.21C27.3995 10.8073 27.5162 11.4187 27.5162 12.044C27.5162 12.7067 27.3949 13.3413 27.1522 13.948C26.9189 14.5453 26.5875 15.082 26.1582 15.558C25.7289 16.0247 25.2202 16.3933 24.6322 16.664C24.0535 16.9347 23.4235 17.07 22.7422 17.07ZM19.5782 12.03C19.5782 12.4967 19.6529 12.9493 19.8022 13.388C19.9515 13.8267 20.1615 14.2187 20.4322 14.564C20.7122 14.9 21.0482 15.166 21.4402 15.362C21.8322 15.558 22.2709 15.656 22.7562 15.656C23.2602 15.656 23.7082 15.5533 24.1002 15.348C24.4922 15.1427 24.8189 14.8673 25.0802 14.522C25.3509 14.1673 25.5562 13.7753 25.6962 13.346C25.8362 12.9073 25.9062 12.4687 25.9062 12.03C25.9062 11.5633 25.8315 11.1153 25.6822 10.686C25.5422 10.2473 25.3322 9.86 25.0522 9.524C24.7722 9.17867 24.4362 8.908 24.0442 8.712C23.6615 8.516 23.2322 8.418 22.7562 8.418C22.2522 8.418 21.8042 8.52067 21.4122 8.726C21.0202 8.93133 20.6889 9.20667 20.4182 9.552C20.1475 9.89733 19.9375 10.2847 19.7882 10.714C19.6482 11.1433 19.5782 11.582 19.5782 12.03ZM35.0059 9.398C34.9125 9.29533 34.7772 9.188 34.5999 9.076C34.4225 8.95467 34.2125 8.84267 33.9699 8.74C33.7272 8.63733 33.4659 8.55333 33.1859 8.488C32.9059 8.42267 32.6165 8.39 32.3179 8.39C31.6645 8.39 31.1792 8.51133 30.8619 8.754C30.5445 8.99667 30.3859 9.33267 30.3859 9.762C30.3859 10.0793 30.4745 10.3313 30.6519 10.518C30.8292 10.6953 31.0999 10.8447 31.4639 10.966C31.8279 11.0873 32.2852 11.218 32.8359 11.358C33.5079 11.5167 34.0912 11.708 34.5859 11.932C35.0805 12.1467 35.4585 12.436 35.7199 12.8C35.9812 13.164 36.1119 13.6447 36.1119 14.242C36.1119 14.746 36.0185 15.18 35.8319 15.544C35.6452 15.908 35.3839 16.2067 35.0479 16.44C34.7119 16.664 34.3245 16.832 33.8859 16.944C33.4472 17.0467 32.9759 17.098 32.4719 17.098C31.9772 17.098 31.4825 17.0467 30.9879 16.944C30.5025 16.8413 30.0359 16.692 29.5879 16.496C29.1492 16.2907 28.7432 16.0433 28.3699 15.754L29.0839 14.41C29.2052 14.5313 29.3779 14.6667 29.6019 14.816C29.8352 14.956 30.1012 15.0913 30.3999 15.222C30.7079 15.3527 31.0392 15.4647 31.3939 15.558C31.7579 15.642 32.1265 15.684 32.4999 15.684C33.1252 15.684 33.6012 15.5767 33.9279 15.362C34.2639 15.138 34.4319 14.8207 34.4319 14.41C34.4319 14.074 34.3245 13.808 34.1099 13.612C33.8952 13.4067 33.5825 13.234 33.1719 13.094C32.7612 12.954 32.2712 12.814 31.7019 12.674C31.0485 12.4967 30.5025 12.3053 30.0639 12.1C29.6252 11.8853 29.2939 11.6147 29.0699 11.288C28.8552 10.952 28.7479 10.5273 28.7479 10.014C28.7479 9.36067 28.9065 8.81 29.2239 8.362C29.5412 7.90467 29.9705 7.564 30.5119 7.34C31.0625 7.10667 31.6785 6.99 32.3599 6.99C32.8079 6.99 33.2325 7.04133 33.6339 7.144C34.0352 7.23733 34.4085 7.368 34.7539 7.536C35.1085 7.704 35.4305 7.89533 35.7199 8.11L35.0059 9.398ZM44.5025 15.614V17H37.6845V7.06H44.3765V8.446H39.2525V11.274H43.6905V12.576H39.2525V15.614H44.5025Z" fill="white"/>
<path d="M72.1421 4.99995L58 19.1421" stroke="white" stroke-width="1.5" stroke-miterlimit="10" stroke-linecap="round"/>
<path d="M72.1421 19.2134L58 5.07129" stroke="white" stroke-width="1.5" stroke-miterlimit="10" stroke-linecap="round"/>
</svg>
