<svg width="140" height="65" viewBox="0 0 140 65" fill="none" xmlns="http://www.w3.org/2000/svg">
<g clip-path="url(#clip0)">
<path d="M68.5379 23.5516C67.9434 24.7137 64.9029 24.8825 63.7928 24.9058L63.2079 26.6634C65.4974 26.5354 69.9858 26.1687 71.1402 23.8834C71.7985 22.5778 69.0206 22.5952 68.5379 23.5516ZM21.2066 23.3906C22.6814 23.3421 23.5019 21.5515 21.5888 21.6155C19.0637 21.6951 17.1603 19.9626 17.2761 17.363C17.4363 13.5082 20.4266 9.53314 23.2355 7.14499C26.5424 4.33586 31.7354 1.91472 36.1813 1.938C41.0711 1.96516 42.6175 6.15752 42.714 10.4139C42.8317 15.3726 40.6117 20.7716 38.1368 25.3714L40.7912 25.3229C42.2429 22.473 43.4765 19.4931 44.4244 16.3678C45.9823 11.2578 46.7429 2.64999 40.2121 0.552838C36.3202 -0.698468 31.6968 0.702218 28.0887 2.17857C23.6216 4.00411 19.834 6.82101 17.1062 10.8291C15.3167 13.4597 13.1738 17.9159 15.3032 20.9792C16.5734 22.8144 19.0772 23.4585 21.2066 23.3906ZM59.0632 26.8477L59.5786 25.0648C57.2717 25.189 55.1771 25.3093 52.8683 25.4296C49.6926 25.5925 44.3877 25.6701 40.9978 25.771V25.7768L37.6735 25.8874V25.8816C31.7064 26.0834 25.7316 26.3744 19.9016 27.1969C10.8766 28.4734 0.110327 34.0975 0.0002903 44.5328C-0.0518325 49.9299 6.92683 52.0116 11.3496 51.6682C19.2954 51.0532 25.2104 45.4311 30.3975 39.9137C33.7759 36.313 36.7372 32.433 39.1889 28.2426L36.4168 28.3997C36.3396 28.5239 36.2681 28.648 36.1928 28.7703C32.411 35.0443 27.2432 40.744 21.5695 45.3709C18.9711 47.4933 16.3707 49.1462 13.004 49.7088C9.55035 50.2927 3.55429 49.3053 2.84581 44.9674C2.53693 43.1205 3.28596 40.8313 4.00603 39.1726C9.08317 27.4569 24.8339 28.1068 36.2276 27.8585L39.9997 27.7246H39.9978C45.7873 27.4297 53.2891 27.1368 59.0632 26.8477ZM101.839 27.938C102.63 27.9632 103.286 27.3444 103.304 26.5587C103.323 25.7671 102.698 25.1095 101.898 25.0823C101.113 25.0571 100.454 25.676 100.437 26.4597C100.424 27.2512 101.049 27.9147 101.839 27.938ZM115.238 37.8301L115.524 34.6058C115.348 34.9434 115.18 35.279 115.003 35.5991C113.642 38.0416 112.327 39.5897 111.35 40.4239C109.925 41.4851 108.671 41.6073 108.223 40.4743C108.088 40.1193 107.947 38.9767 107.947 38.9767C107.837 37.9776 107.902 36.8116 108.109 35.504C108.111 35.4788 108.111 35.4575 108.115 35.4264C108.192 34.6485 108.663 30.7995 108.823 29.4687C108.823 29.4551 108.823 29.4473 108.825 29.4376C108.858 29.1719 108.877 29.0031 108.877 29.0031H108.885C109.064 27.8507 109.456 25.901 110.072 23.1345C110.869 19.5281 111.813 16.8179 112.908 14.9981C113.991 13.1765 114.86 12.5828 115.51 13.2192C116.167 13.8594 116.13 15.5258 115.392 18.2302C114.659 20.9288 113.68 23.3324 112.449 25.4335C111.225 27.5384 110.29 29.0128 109.651 29.8625C109.458 30.1166 109.304 30.2854 109.174 30.3863L108.839 33.5194C111.23 29.9498 112.63 27.7983 113.039 27.0669C113.489 26.2618 114.004 25.2259 114.587 23.9571C115.174 22.6864 115.692 21.4855 116.149 20.3448C116.595 19.2021 116.935 18.0265 117.161 16.814C117.387 15.5995 117.483 14.4394 117.452 13.3356C117.421 12.2395 117.008 11.4576 116.209 10.9978C115.416 10.5361 114.42 10.734 113.244 11.5992C112.057 12.4626 110.987 14.1193 110.022 16.5618C109.061 19.0043 108.346 21.3459 107.889 23.5749C107.423 25.804 106.949 28.2911 106.464 31.0284C106.335 31.8374 106.23 32.5416 106.138 33.1644L106.149 33.1586C106.149 33.1586 105.725 36.6642 105.692 37.7622C105.717 38.2317 105.777 39.3782 105.783 39.8264C105.783 39.8497 105.781 39.8962 105.781 39.9214C105.995 42.3368 107.371 43.6404 109.047 43.235C109.458 43.1322 110.263 42.8082 110.644 42.6045C111.238 42.2747 111.663 41.7218 112.178 41.3085C112.898 40.7246 113.916 39.6751 115.238 37.8301ZM139.147 35.1354C137.446 37.2209 136.35 38.4897 135.834 38.9437L135.099 39.4093C134.473 39.5664 134.255 38.9437 134.392 37.5488C134.437 37.0832 134.471 36.1326 134.552 35.6709C134.666 35.0423 134.925 33.7852 135.489 31.9461C136.079 30.0177 136.46 29.5017 136.363 28.8614C136.363 28.8614 136.207 27.6528 134.448 27.4278C133.135 27.3579 131.933 27.6004 129.937 28.9895C127.941 30.3824 126.371 32.1439 125.213 34.2741C124.873 34.9802 124.595 35.6321 124.363 36.2432C123.234 37.9737 122.269 39.1959 121.468 39.8826C120.037 40.9399 118.782 41.0622 118.336 39.9331C118.199 39.5781 118.058 38.4354 118.058 38.4354C117.954 37.446 118.012 36.2703 118.238 34.9007C118.323 34.0549 118.728 30.6909 118.908 29.232C118.919 29.069 118.948 28.8614 118.985 28.617C118.991 28.5704 118.993 28.5452 118.993 28.5452H118.995C119.161 27.4045 119.555 25.4296 120.194 22.5913C120.985 18.9829 121.933 16.2689 123.022 14.4511C124.111 12.6313 124.981 12.0416 125.626 12.676C126.284 13.3142 126.246 14.9826 125.51 17.687C124.777 20.3894 123.794 22.7892 122.57 24.8941C121.34 26.9952 120.41 28.4715 119.773 29.3193C119.585 29.5715 119.429 29.7364 119.302 29.8392L118.968 32.9646C121.354 29.4046 122.751 27.2571 123.157 26.5218C123.603 25.7206 124.122 24.6827 124.705 23.4139C125.286 22.149 125.807 20.9443 126.259 19.8016C126.715 18.6609 127.056 17.4833 127.282 16.2689C127.502 15.0544 127.603 13.8962 127.578 12.7943C127.545 11.6924 127.126 10.9105 126.332 10.4508C125.535 9.99098 124.543 10.1889 123.36 11.0541C122.18 11.9194 121.109 13.5722 120.145 16.0205C119.18 18.463 118.47 20.7988 118.006 23.0298C117.543 25.2569 117.07 27.7459 116.587 30.4852C116.458 31.2903 116.35 31.9965 116.259 32.6212C116.257 32.6542 115.887 35.6883 115.815 36.9784C115.817 37.0754 115.84 38.7264 115.889 39.289C115.889 39.3103 115.896 39.3569 115.902 39.3782C116.261 41.778 117.493 43.0934 119.161 42.6898C119.58 42.5851 120.387 42.265 120.753 42.0555C122.041 41.3512 122.945 40.195 123.763 39.0484C123.742 39.5509 123.724 40.0553 123.833 40.5403C123.879 40.7207 123.966 41.0816 124.064 41.2329C124.172 41.4075 124.472 41.7101 124.659 41.7897C125.763 42.2417 126.767 41.5452 127.462 41.0137C128.991 39.8361 130.775 37.962 132.688 35.2227C132.688 35.2227 132.274 37.867 132.224 38.7574C132.114 40.8623 133.043 41.4987 134.688 41.2659C136.014 41.0796 137.711 39.4151 139.751 35.7718C140.379 34.6504 139.691 34.4351 139.147 35.1354ZM130.661 35.4323C129.887 36.4081 128.91 37.5042 127.568 38.5867C126.304 39.4869 125.788 39.0446 126.01 37.2578C126.273 36.1035 126.875 34.7979 127.821 33.3506C128.659 31.9984 129.425 31.1157 130.11 30.687C131.298 29.8412 133.002 29.684 132.952 30.8771C132.859 33.081 131.466 34.4138 130.661 35.4323ZM104.217 37.5255C104.088 37.7603 103.632 38.4315 103.632 38.4315L103.215 38.9902C101.79 40.7071 100.781 41.6112 100.198 41.6907C99.8039 41.6597 99.5838 41.4909 99.5356 41.1844L99.5221 40.3424L99.7151 38.6139C100.036 35.3566 101.153 32.8365 101.624 30.5648C101.79 29.7791 101.319 29.23 100.821 29.3794C100.69 29.4182 100.447 29.5715 100.352 29.6666C98.6649 31.3854 98.024 33.6513 97.0086 35.4129L96.9063 35.601C96.4796 36.379 96.0318 37.1356 95.4565 37.9581C94.4854 39.3511 93.5241 40.3075 92.7557 40.9749C91.8581 41.7431 91.2693 42.1718 90.9758 42.2805C90.6863 42.3833 90.499 42.457 90.4044 42.5017C92.4874 39.8419 94.2152 35.4109 95.4198 31.6997C97.1669 26.2968 95.5433 27.5112 93.7461 28.7043C93.2036 29.071 93.0183 29.8198 93.0183 29.8198C92.914 30.4464 93.0936 32.6348 92.4913 35.601C92.2596 36.7883 91.9778 37.3257 91.2712 38.6197C90.6921 39.677 89.7654 40.775 89.0338 41.487C88.3099 42.199 87.7597 42.5211 87.4025 42.4415C87.0357 42.3678 86.8987 41.908 86.9778 41.0602C87.0608 40.2202 87.2848 38.967 87.6631 37.2927C88.0415 35.6282 88.2114 34.4351 88.1651 33.7173C88.1207 33.0034 87.9353 32.5475 87.6168 32.3554C87.3079 32.1653 86.972 32.1536 86.6226 32.3205C86.2635 32.4854 85.8041 32.9335 85.225 33.663C84.7365 34.2799 83.9354 35.9677 82.2791 38.3539C80.808 40.4511 79.6285 41.6015 79.0957 41.9992C78.92 42.135 78.3544 42.4667 78.3544 42.4667C77.7289 42.6239 77.5146 42.0031 77.6517 40.6082C77.7019 40.1348 77.7289 39.1881 77.8119 38.7225C77.92 38.0998 78.1807 36.8426 78.7444 35.0035C79.3428 33.0751 79.7231 32.561 79.6285 31.9208C79.6285 31.9208 79.4413 30.5745 77.7096 30.4833C76.6343 30.3262 75.1884 30.656 73.1923 32.045C71.2001 33.4379 69.6267 35.2014 68.4684 37.3335C67.9009 38.5188 67.482 39.5722 67.2175 40.486C66.9916 41.5336 66.8584 42.5851 67.0901 43.5978C67.1075 43.6521 67.121 43.7297 67.1461 43.8092C64.0592 43.85 61.3836 40.0398 61.0573 36.6855C60.7407 33.4748 61.455 30.072 62.4898 26.8691H62.484L62.511 26.7973C62.5226 26.7585 62.5322 26.7197 62.5496 26.6809H62.5515L63.1654 24.9077H63.1596C63.177 24.8689 63.1905 24.8398 63.2002 24.8049L63.2214 24.7467H63.2233C63.5322 23.9067 63.8546 23.0822 64.1712 22.2965C67.2407 14.7789 71.7618 7.53105 77.2077 1.49956C78.3872 0.190056 75.8081 -0.535507 74.9066 0.461657C68.6962 7.33899 63.2272 15.9138 60.289 24.9504L59.7099 26.8885C59.2832 28.4055 58.9164 29.9304 58.6481 31.4591C57.9705 35.2887 57.7273 39.838 60.4956 43.0158C63.8102 46.8201 68.9125 46.3429 72.1479 42.8955C72.2039 42.8373 72.2444 42.783 72.285 42.7286C73.424 41.617 74.6382 40.1407 75.9374 38.2841C75.9374 38.2841 75.5301 40.9264 75.4799 41.8149C75.3622 43.9179 76.2984 44.5561 77.9432 44.3233C79.2115 44.1487 80.6439 42.4784 82.7848 39.2114C83.9431 37.446 84.8717 36.4837 85.252 36.1268C85.7018 35.698 85.9528 35.6263 85.9971 35.9017C86.0415 36.185 85.8929 37.0172 85.5377 38.4102C85.1902 39.7973 84.9894 40.9729 84.9315 41.9313C84.8659 42.8897 85.0454 43.5687 85.4643 43.9683C85.8775 44.3718 86.4103 44.5794 87.057 44.5988C87.7037 44.6182 88.3639 44.5503 89.028 44.3932C91.1689 43.8732 92.804 42.1059 94.8986 39.937C95.2017 39.6246 95.6939 39.1804 96.2402 38.4393C96.607 37.9504 97.3252 36.9629 97.6456 36.4488C97.8561 36.119 97.968 35.8261 98.0703 35.5816L98.0781 35.5797C97.5703 38.3364 97.3561 40.1174 97.3097 40.9264C97.2132 42.4473 97.5491 43.3494 98.5974 43.656C99.2672 43.8112 99.9873 43.7665 100.659 43.363C101.489 42.8664 102.095 42.0283 102.81 41.2212C103.414 40.5461 104.203 39.6227 105.124 38.3481L105.408 35.1471C105.001 35.9832 104.624 36.7903 104.217 37.5255ZM73.922 38.4936C73.1479 39.4733 72.1769 40.5655 70.8294 41.6461C69.5707 42.5521 69.0495 42.1059 69.2715 40.323C69.5302 39.1648 70.1402 37.8611 71.0804 36.41C71.9259 35.0637 72.6904 34.1732 73.3796 33.7464C74.5649 32.9064 76.2676 32.7434 76.2193 33.9384C76.1228 36.0899 74.7309 37.4712 73.922 38.4936Z" fill="black"/>
<path d="M38.3492 63.6486H39.1503V64.2966C38.9843 64.3412 38.8047 64.3664 38.6407 64.3664C38.0229 64.3315 37.743 64.1743 37.7063 63.2994C37.7391 62.4322 38.0268 62.2634 38.6407 62.2324C38.9051 62.2324 39.1677 62.2867 39.4206 62.3876L39.7063 62.504V61.8289L39.5711 61.7784C39.2738 61.662 38.9457 61.5903 38.6098 61.5903C38.1735 61.5903 37.7797 61.7105 37.494 62.0035C37.2082 62.2945 37.0615 62.7368 37.0615 63.2975C37.0615 63.862 37.2102 64.2985 37.4978 64.5876C37.7835 64.8747 38.1754 64.993 38.6059 64.993H38.6175C38.9766 64.993 39.3395 64.9271 39.6792 64.7699L39.8009 64.7117V63.0084H38.3511V63.6486H38.3492ZM45.0846 61.5864C44.6 61.5844 44.1946 61.7319 43.9244 62.0384C43.6618 62.343 43.5499 62.7717 43.5499 63.2897C43.5499 63.8096 43.6638 64.2403 43.9244 64.5468C44.1946 64.8533 44.6 65.0008 45.0846 64.9988H45.102C45.5846 64.9988 45.9861 64.8514 46.2506 64.5468C46.517 64.2403 46.6328 63.8096 46.6328 63.2897C46.6328 62.7717 46.517 62.343 46.2506 62.0384C45.9823 61.7319 45.5749 61.5844 45.0846 61.5864ZM45.0846 64.3645C44.407 64.3295 44.2274 64.1064 44.1888 63.2897C44.2274 62.4807 44.407 62.2537 45.0846 62.2208C45.768 62.2537 45.9475 62.4807 45.9861 63.2897C45.9475 64.1084 45.7738 64.3315 45.0846 64.3645ZM52.5073 63.6156C52.4802 64.1918 52.3161 64.347 51.8026 64.3742C51.2814 64.347 51.125 64.1918 51.0942 63.6156V61.6349H50.4494V63.604C50.4494 64.4518 50.9841 64.995 51.8026 64.995C52.6212 64.995 53.154 64.4498 53.1578 63.604V61.6349H52.5073V63.6156ZM59.4743 62.6767C59.4724 62.0403 58.9801 61.6349 58.3064 61.6329H57.0709V64.96H57.7157V63.7553H58.2234L58.9975 64.96H59.7639L58.901 63.6253C59.1732 63.4934 59.4743 63.2043 59.4743 62.6767ZM58.289 63.117H57.7157V62.2654H58.289C58.8064 62.2984 58.7967 62.4322 58.8238 62.6941C58.7967 62.9618 58.7929 63.0879 58.289 63.117ZM66.1306 61.5437L66.065 61.6329H65.7889L64.8276 63.0433L63.8623 61.6329H63.5843L63.5264 61.5437V61.6329H63.3025V64.96H63.9395V62.8862L64.8276 64.1549L65.7059 62.8862V64.96H66.3507V61.6329H66.1306V61.5437ZM70.2773 64.9581H72.4935V64.3237H70.9163V63.604H72.3062V62.9638H70.9163V62.2634H72.4935V61.631H70.2773V64.9581ZM76.0938 62.2712H77.144V64.9581H77.7868V62.2712H78.837V61.631H76.0957V62.2712H76.0938ZM87.4508 62.2712H88.5068V64.9581H89.1496V62.2712H90.194V61.631H87.4508V62.2712ZM93.8638 64.9581H96.0742V64.3237H94.5028V63.604H95.8889V62.9638H94.5028V62.2634H96.0742V61.631H93.8638V64.9581ZM102.671 64.6671L101.445 61.631H101.225L101.194 61.5515L101.157 61.631H100.945L100.887 61.7649C100.493 62.731 100.105 63.701 99.7093 64.6671L99.5935 64.9581H100.29L100.657 64.0366H101.729C101.831 64.3004 101.933 64.5662 102.039 64.8281L102.092 64.9581H102.792L102.671 64.6671ZM100.908 63.4042L101.192 62.6864L101.478 63.4003L100.908 63.4042Z" fill="black"/>
<path d="M106.176 63.877V63.3474H139.749V63.877H106.176Z" fill="black"/>
<path d="M0 63.877V63.3474H33.5748V63.877H0Z" fill="black"/>
</g>
<defs>
<clipPath id="clip0">
<rect width="140" height="65" fill="white"/>
</clipPath>
</defs>
</svg>
