<svg width="24" height="24" viewBox="0 0 24 24" fill="none" xmlns="http://www.w3.org/2000/svg">
<path d="M11.9952 2.16233C15.2 2.16233 15.5762 2.17662 16.8429 2.23378C18.0143 2.28617 18.6476 2.48144 19.0714 2.64814C19.6333 2.86724 20.0333 3.12443 20.4524 3.54356C20.8714 3.96269 21.1333 4.36277 21.3476 4.92479C21.5095 5.34868 21.7095 5.98214 21.7619 7.1538C21.819 8.42072 21.8333 8.79698 21.8333 12.0024C21.8333 15.2078 21.819 15.584 21.7619 16.851C21.7095 18.0226 21.5143 18.6561 21.3476 19.08C21.1286 19.642 20.8714 20.0421 20.4524 20.4612C20.0333 20.8803 19.6333 21.1423 19.0714 21.3566C18.6476 21.5186 18.0143 21.7186 16.8429 21.771C15.5762 21.8281 15.2 21.8424 11.9952 21.8424C8.79048 21.8424 8.41429 21.8281 7.14762 21.771C5.97619 21.7186 5.34286 21.5233 4.91905 21.3566C4.35714 21.1375 3.95714 20.8803 3.5381 20.4612C3.11905 20.0421 2.85714 19.642 2.64286 19.08C2.48095 18.6561 2.28095 18.0226 2.22857 16.851C2.17143 15.584 2.15714 15.2078 2.15714 12.0024C2.15714 8.79698 2.17143 8.42072 2.22857 7.1538C2.28095 5.98214 2.47619 5.34868 2.64286 4.92479C2.8619 4.36277 3.11905 3.96269 3.5381 3.54356C3.95714 3.12443 4.35714 2.86247 4.91905 2.64814C5.34286 2.48621 5.97619 2.28617 7.14762 2.23378C8.41429 2.17186 8.79524 2.16233 11.9952 2.16233ZM11.9952 0C8.7381 0 8.32857 0.0142885 7.04762 0.0714428C5.77143 0.128597 4.9 0.3334 4.1381 0.628696C3.34762 0.933519 2.68095 1.34789 2.01429 2.01469C1.34762 2.68148 0.938095 3.35305 0.628571 4.13892C0.333333 4.90097 0.128571 5.77257 0.0714286 7.05378C0.0142857 8.33022 0 8.73983 0 11.9976C0 15.2554 0.0142857 15.665 0.0714286 16.9462C0.128571 18.2227 0.333333 19.0943 0.628571 19.8611C0.933333 20.6517 1.34762 21.3185 2.01429 21.9853C2.68095 22.6521 3.35238 23.0617 4.1381 23.3713C4.9 23.6666 5.77143 23.8714 7.05238 23.9286C8.33333 23.9857 8.7381 24 12 24C15.2619 24 15.6667 23.9857 16.9476 23.9286C18.2238 23.8714 19.0952 23.6666 19.8619 23.3713C20.6524 23.0665 21.319 22.6521 21.9857 21.9853C22.6524 21.3185 23.0619 20.647 23.3714 19.8611C23.6667 19.099 23.8714 18.2274 23.9286 16.9462C23.9857 15.665 24 15.2602 24 11.9976C24 8.73507 23.9857 8.33022 23.9286 7.04902C23.8714 5.77257 23.6667 4.90097 23.3714 4.13415C23.0667 3.34352 22.6524 2.67672 21.9857 2.00992C21.319 1.34312 20.6476 0.933519 19.8619 0.623933C19.1 0.328637 18.2286 0.123834 16.9476 0.0666799C15.6619 0.0142885 15.2524 0 11.9952 0Z" fill="white"/>
<path d="M11.9949 5.83838C8.5949 5.83838 5.83301 8.59606 5.83301 12.0015C5.83301 15.4069 8.59014 18.1646 11.9949 18.1646C15.3996 18.1646 18.1568 15.4069 18.1568 12.0015C18.1568 8.59606 15.3996 5.83838 11.9949 5.83838ZM11.9949 15.9975C9.78537 15.9975 7.9949 14.2067 7.9949 11.9967C7.9949 9.78677 9.78537 7.99594 11.9949 7.99594C14.2044 7.99594 15.9949 9.78677 15.9949 11.9967C15.9949 14.2067 14.2044 15.9975 11.9949 15.9975Z" fill="white"/>
<path d="M18.4006 7.02905C19.1951 7.02905 19.8392 6.38513 19.8392 5.59082C19.8392 4.79651 19.1951 4.15259 18.4006 4.15259C17.606 4.15259 16.9619 4.79651 16.9619 5.59082C16.9619 6.38513 17.606 7.02905 18.4006 7.02905Z" fill="white"/>
</svg>
