<svg width="70" height="23" viewBox="0 0 70 23" fill="none" xmlns="http://www.w3.org/2000/svg">
<g clip-path="url(#clip0)">
<path d="M36.7571 16.6289L36.6784 16.4597C36.6179 16.5987 36.4788 16.6712 36.3034 16.6712C36.0373 16.6712 35.8135 16.4657 35.8135 16.097V14.3682C35.8135 14.0418 36.0252 13.7939 36.3518 13.7939C36.6784 13.7939 36.8599 14.0297 36.8599 14.3682V14.743H36.5816V14.3138C36.5816 14.1869 36.5091 14.078 36.3518 14.078C36.1945 14.078 36.1159 14.1929 36.1159 14.3138V16.1393C36.1159 16.2844 36.1885 16.3932 36.3518 16.3932C36.5091 16.3932 36.5937 16.2783 36.5937 16.1393V15.5046H36.3699V15.2386H36.8841V16.6289H36.7571Z" fill="white"/>
<path d="M39.7693 16.6709C39.4608 16.6709 39.243 16.4533 39.243 16.1087V13.8359H39.5455V16.1269C39.5455 16.2961 39.6241 16.3868 39.7753 16.3868C39.9326 16.3868 40.0052 16.2961 40.0052 16.1269V13.8359H40.3015V16.1087C40.3015 16.4533 40.0717 16.6709 39.7693 16.6709Z" fill="white"/>
<path d="M43.5859 16.6286L43.1081 15.2141L42.975 14.7668V16.6286H42.6907V13.8359H42.9629L43.3924 15.2685L43.5194 15.7219V13.8359H43.8037V16.6286H43.5859Z" fill="white"/>
<path d="M46.9186 16.6286L46.846 16.0241H46.4589L46.3682 16.6286H46.0839L46.5073 13.8359H46.8218L47.2271 16.6286H46.9186ZM46.6585 14.4948L46.4952 15.74H46.8037L46.6585 14.4948Z" fill="white"/>
<path d="M50.7292 16.6286H50.451L50.2272 14.8152L49.9792 16.6286H49.6949L49.3804 13.8359H49.6767L49.8582 15.8367L50.1304 13.8359H50.3784L50.6143 15.8367L50.8199 13.8359H51.0982L50.7292 16.6286Z" fill="white"/>
<path d="M54.0499 16.6286L53.9773 16.0241H53.5902L53.4995 16.6286H53.2152L53.6386 13.8359H53.9531L54.3584 16.6286H54.0499ZM53.7898 14.4948L53.6265 15.74H53.935L53.7898 14.4948Z" fill="white"/>
<path d="M57.5399 16.6286L57.0621 15.2141L56.929 14.7668V16.6286H56.6447V13.8359H56.9169L57.3524 15.2685L57.4734 15.7219V13.8359H57.7637V16.6286H57.5399Z" fill="white"/>
<path d="M15.5267 12.6756C15.3876 12.736 15.2424 12.7904 15.1033 12.8569C14.5226 13.1229 13.948 13.401 13.3613 13.6548C12.9258 13.8422 12.4722 13.9994 11.9822 13.9571C11.5891 13.9208 11.2443 13.7757 11.1173 13.413C11.2262 13.0987 12.1637 12.3915 12.6657 12.2525C12.8472 12.3552 12.8593 12.3734 12.8653 12.6031C12.6234 12.7784 12.3754 12.9597 12.1214 13.1471C12.1274 13.1592 12.1335 13.1773 12.1395 13.1894C12.1879 13.1954 12.2363 13.2136 12.2786 13.2015C12.5266 13.1471 12.7807 13.1108 13.0105 13.0201C13.5549 12.8086 14.0932 12.5789 14.6315 12.3371C16.2828 11.5876 17.8735 10.7232 19.4583 9.84669C19.555 9.79228 19.6458 9.72579 19.7305 9.65326C21.0732 8.5773 22.3676 7.44091 23.6681 6.31055C24.7689 5.36154 25.906 4.45483 27.0492 3.55418C27.7811 2.97389 28.5311 2.41778 29.3295 1.92211C30.382 1.27533 31.4586 0.676911 32.5957 0.193336C32.7772 0.114756 32.9708 0.0543088 33.1704 0.0180408C33.6421 -0.0786741 33.9869 0.217515 34.12 0.574151C34.2168 0.821983 34.1563 1.09399 34.0172 1.32369C33.8841 1.5413 33.7147 1.74682 33.5393 1.9342C33.0554 2.46009 32.499 2.90135 31.9183 3.31843C30.5634 4.29767 29.1239 5.14997 27.6783 5.98414C25.6399 7.15681 23.5894 8.31738 21.545 9.47796C20.9462 9.81646 20.3293 10.1368 19.7244 10.4693C19.5308 10.5781 19.3373 10.6929 19.1619 10.8259C18.0973 11.6057 17.0388 12.3975 15.9743 13.1833C15.9199 13.2257 15.8715 13.274 15.8352 13.3586C15.8896 13.3466 15.9441 13.3345 15.9985 13.3163C16.8513 12.9839 17.7163 12.6877 18.5328 12.2887C18.678 12.2162 18.8171 12.1255 18.9441 12.0288C19.0893 11.92 19.2284 11.7931 19.3675 11.6661C20.051 11.0617 20.8131 10.5781 21.6055 10.1368C22.3616 9.7137 23.1297 9.30871 23.9161 8.93998C24.5512 8.63775 25.2165 8.39596 25.8758 8.14209C26.1843 8.02119 26.5048 7.91843 26.8194 7.80963C27.025 7.74314 27.2307 7.74918 27.4363 7.79754C27.7146 7.87008 27.8597 8.08769 27.9625 8.32947C27.9988 8.4141 27.9565 8.49268 27.8839 8.54104C27.7448 8.63775 27.6117 8.74656 27.4605 8.83118C26.5714 9.32684 25.6459 9.74997 24.7145 10.161C22.8818 10.977 21.049 11.787 19.2224 12.6091C19.0288 12.6998 18.8534 12.8569 18.6961 13.0081C18.5691 13.1289 18.4603 13.274 18.3756 13.4251C18.2607 13.6307 18.3453 13.7818 18.5812 13.8301C18.9078 13.8906 19.2224 13.8604 19.5429 13.7455C20.4381 13.4191 21.2668 12.9476 22.1196 12.5366C24.3395 11.4667 26.4625 10.2094 28.64 9.05483C29.0089 8.8614 29.3053 8.58939 29.6078 8.31738C30.5876 7.43486 31.5614 6.54025 32.5534 5.66981C33.1099 5.1802 33.7268 4.76311 34.3619 4.37021C34.8216 4.08611 35.2813 3.80201 35.7954 3.61462C35.8438 3.59649 35.8922 3.57836 35.9406 3.56022C36.2007 3.48769 36.4305 3.63276 36.485 3.90477C36.4971 3.95313 36.5031 4.00753 36.5092 4.06798C36.4063 4.25536 36.2793 4.41857 36.116 4.56968C35.1119 5.48847 33.9869 6.25615 32.88 7.03591C32.2328 7.48926 31.5312 7.87008 30.8538 8.28716C30.7872 8.32947 30.7207 8.37783 30.6421 8.42619C30.7146 8.5229 30.7993 8.52895 30.884 8.54708C31.2953 8.63775 31.6945 8.58335 32.0937 8.4685C32.5776 8.32343 33.0615 8.1844 33.5454 8.03933C33.6179 8.02119 33.6905 8.00306 33.7631 7.99097C33.9446 7.96679 34.0958 7.99702 34.2107 8.16022C34.3075 8.28716 34.4345 8.39596 34.5494 8.51081C34.8216 8.78887 34.7974 9.03065 34.4708 9.23013C34.374 9.29058 34.2712 9.35102 34.1744 9.41147C34.1805 9.4296 34.1865 9.44169 34.1926 9.45983C34.253 9.44169 34.3075 9.4296 34.368 9.41147C34.8821 9.23617 35.3478 8.94603 35.8257 8.6982C36.7571 8.22671 37.6886 7.74314 38.6201 7.27165C38.8258 7.16889 39.0435 7.08427 39.2613 7.01173C39.5939 6.90293 39.854 7.05405 39.9145 7.40464C39.9447 7.58598 39.9387 7.77336 39.9447 7.9547C39.9447 8.02724 39.9447 8.09977 39.9447 8.21462C40.0415 8.16627 40.1081 8.13 40.1746 8.09373C41.1726 7.47717 42.1343 6.80621 43.1081 6.15339C44.5235 5.19833 45.8723 4.17678 47.2151 3.14314C48.2555 2.34524 49.2716 1.51108 50.2999 0.689C50.4148 0.59833 50.5358 0.50766 50.6507 0.416989C50.693 0.386766 50.7293 0.350498 50.7777 0.326319C50.9047 0.271917 51.0378 0.187292 51.1769 0.296096C51.31 0.398855 51.4007 0.531838 51.3765 0.719223C51.3705 0.755491 51.3644 0.791759 51.3584 0.828028C51.3402 0.846162 51.3281 0.87034 51.31 0.88243C50.5176 1.40832 49.8099 2.04905 49.0539 2.61725C48.2131 3.2459 47.4571 3.97126 46.6828 4.67244C45.9449 5.33736 45.213 6.00832 44.4751 6.67928C44.4086 6.73972 44.3481 6.80017 44.2574 6.88479C44.3904 6.90293 44.457 6.84248 44.5235 6.80621C45.0316 6.54025 45.5336 6.26824 46.0356 6.00227C46.1687 5.93578 46.3018 5.87533 46.4228 5.81489C46.6345 5.86324 46.7191 6.00832 46.7675 6.17757C46.8099 6.32264 46.7675 6.44958 46.6586 6.55838C46.1022 7.12658 45.5518 7.70083 45.0074 8.27507C44.6505 8.64984 44.2937 9.03065 43.9428 9.41147C43.8642 9.49609 43.8037 9.6049 43.7311 9.69557C43.6707 9.78019 43.6162 9.86482 43.5618 9.9434C43.2715 9.91318 43.1021 9.50214 43.217 9.27849C43.3077 9.10924 43.3924 8.93394 43.5013 8.77678C43.7251 8.46246 43.9489 8.14813 44.2392 7.88821C44.2695 7.85799 44.2997 7.82172 44.3239 7.78545C44.3299 7.77941 44.3239 7.76127 44.3239 7.71292C44.2332 7.76127 44.1606 7.79754 44.088 7.83985C43.0295 8.4685 41.971 9.09715 40.9065 9.72579C40.7794 9.79833 40.6524 9.87691 40.471 9.87691C40.4044 9.78624 40.3258 9.70161 40.2653 9.59885C40.1625 9.41147 40.229 9.18177 40.4286 9.03065C40.7553 8.78282 41.094 8.55917 41.4145 8.30529C41.7896 8.0091 42.1525 7.68874 42.5033 7.34419C42.4609 7.36232 42.4126 7.36837 42.3763 7.39255C41.5658 7.88821 40.7552 8.38387 39.9508 8.89163C39.8177 8.97625 39.6907 9.09715 39.5939 9.22408C39.1403 9.81042 38.5657 10.2396 37.8943 10.5539C37.7128 10.6385 37.5374 10.7353 37.362 10.838C37.0717 11.0133 36.7511 11.104 36.4305 11.1946C36.2491 11.243 36.0918 11.2067 35.9769 11.0496C35.868 10.9045 35.8559 10.7353 35.9769 10.5962C36.0616 10.4935 36.1644 10.4028 36.2733 10.3363C36.8176 10.022 37.3741 9.71975 37.9185 9.40543C38.2209 9.23013 38.5173 9.04879 38.8016 8.84931C39.1826 8.58335 39.2794 8.17836 39.2794 7.70083C39.1584 7.74314 39.0617 7.76732 38.9709 7.80963C38.1483 8.17836 37.3983 8.68006 36.612 9.10924C36.1341 9.36916 35.6442 9.59281 35.1543 9.82855C34.7551 10.022 34.3498 10.2154 33.9446 10.3907C33.6542 10.5176 33.3518 10.6325 33.0554 10.7413C32.7772 10.838 32.5111 10.8199 32.3175 10.5297C32.1844 10.6144 32.0635 10.6809 31.9425 10.7534C31.5796 10.977 31.1864 11.1221 30.7751 11.2309C30.6179 11.2732 30.4848 11.2249 30.3638 11.1282C30.14 10.9408 30.134 10.7111 30.3578 10.5237C30.4908 10.4149 30.63 10.3182 30.7751 10.2335C31.3134 9.91922 31.8578 9.61699 32.4022 9.30871C32.5474 9.22408 32.6865 9.12737 32.8256 9.0367C32.8195 9.02461 32.8135 9.00648 32.8074 8.99439C32.753 9.00043 32.6986 9.00043 32.6441 9.01252C32.2873 9.0911 31.9364 9.18177 31.5796 9.25431C31.4405 9.28453 31.3134 9.33893 31.1985 9.4296C30.6723 9.85273 30.1461 10.2819 29.6078 10.6809C29.2267 10.965 28.8154 11.2067 28.4283 11.4787C27.7387 11.9502 27.0008 12.325 26.2689 12.73C26.1177 12.8146 25.9484 12.8811 25.7609 12.8569C25.5613 12.8328 25.4342 12.724 25.3617 12.5487C25.2951 12.3794 25.3677 12.2404 25.4887 12.1316C25.7911 11.8475 26.0996 11.5694 26.4081 11.2853C26.5774 11.1282 26.7528 10.977 26.9222 10.8259C26.9585 10.7957 26.9827 10.7534 26.9887 10.6869C26.9343 10.705 26.8799 10.7232 26.8315 10.7473C25.6097 11.3941 24.3999 12.053 23.1721 12.6816C22.0652 13.2559 20.9462 13.806 19.8212 14.3439C19.549 14.4709 19.2466 14.5494 18.9441 14.5918C18.557 14.6462 18.2123 14.5192 17.9461 14.217C17.7949 14.0417 17.7647 13.8362 17.7647 13.6125C17.7647 13.5339 17.7647 13.4554 17.7647 13.3345C17.6618 13.3647 17.5832 13.3889 17.5046 13.4191C16.3675 13.8966 15.2424 14.3923 14.0992 14.8517C13.319 15.166 12.575 15.5468 11.8613 15.9941C11.2625 16.3689 10.6879 16.7739 10.1072 17.1728C8.94587 17.9707 7.79664 18.7868 6.62322 19.5726C5.75828 20.1529 4.88123 20.7029 3.99814 21.253C3.28441 21.7003 2.57673 22.1416 1.84486 22.5526C1.4517 22.7702 1.02225 22.9334 0.562562 22.9757C0.44764 22.9878 0.32062 22.9636 0.217795 22.9153C-0.0180994 22.8125 -0.102779 22.5586 0.0363377 22.341C0.157309 22.1537 0.296426 21.9784 0.44764 21.8151C1.02225 21.2046 1.6755 20.7029 2.37713 20.2435C2.67956 20.0441 2.98804 19.8506 3.29651 19.6512C5.13527 18.4543 7.07081 17.4388 9.07894 16.5442C9.90759 16.1755 10.7302 15.8007 11.5528 15.4199C11.6556 15.3715 11.7524 15.3232 11.8431 15.2627C13.0045 14.4648 14.1658 13.6609 15.3211 12.8569C15.3936 12.8086 15.4602 12.7542 15.5327 12.6998C15.5448 12.7058 15.5388 12.6877 15.5267 12.6756ZM22.6338 7.98493C22.6459 8.00306 22.658 8.02724 22.6701 8.04537C22.8455 7.96075 23.033 7.88821 23.2023 7.78545C24.2729 7.17494 25.3375 6.55838 26.4081 5.94787C28.2468 4.89005 30.1037 3.85641 31.8336 2.61725C32.4143 2.20017 32.9405 1.72264 33.4244 1.19675C33.4909 1.12422 33.5514 1.03355 33.5938 0.936832C33.6663 0.77967 33.5877 0.670866 33.4183 0.676911C33.3518 0.676911 33.2853 0.689 33.2248 0.713179C32.88 0.834072 32.5353 0.942876 32.2026 1.0819C31.2046 1.51108 30.267 2.0551 29.3598 2.64748C28.3617 3.29426 27.394 3.98939 26.4746 4.73893C25.2649 5.73026 24.0794 6.75181 22.8818 7.76127C22.791 7.83381 22.7124 7.90635 22.6338 7.98493ZM1.22186 21.9784C1.24 22.0025 1.2521 22.0207 1.27024 22.0448C1.53033 21.924 1.79647 21.8151 2.04446 21.6701C2.89731 21.1744 3.75015 20.6787 4.58486 20.1468C5.54053 19.5363 6.47201 18.8895 7.41558 18.2548C7.45187 18.2307 7.48212 18.1944 7.51236 18.1581C7.43978 18.1581 7.38534 18.1763 7.33695 18.2004C6.26031 18.7807 5.16552 19.3368 4.12516 19.9776C3.21788 20.5397 2.3106 21.1079 1.45775 21.7487C1.36702 21.8212 1.30049 21.9058 1.22186 21.9784ZM26.4323 8.64984C25.7488 8.61357 21.9503 10.5116 21.4906 10.9408C21.8898 10.9105 26.0875 8.97625 26.4323 8.64984ZM29.6622 9.90109C29.6561 9.87691 29.6501 9.85878 29.644 9.8346C29.4202 9.86482 29.1964 9.889 28.9727 9.92527C28.6944 9.96758 28.4706 10.1006 28.271 10.3061C27.9383 10.6506 27.5754 10.965 27.2246 11.2974C27.1278 11.3941 27.0311 11.4969 26.9403 11.5936C26.9948 11.6238 27.0371 11.6299 27.0613 11.6178C27.9504 11.0919 28.8093 10.5056 29.6622 9.90109ZM34.7974 4.8961C34.7853 4.88401 34.7732 4.87192 34.7611 4.85378C34.2712 5.10162 33.8236 5.40989 33.376 5.73631C32.6199 6.28637 32.2026 6.64301 32.136 6.82435C32.1784 6.80621 32.2147 6.79412 32.2449 6.77599C33.0675 6.29846 33.8296 5.73631 34.5676 5.13184C34.6523 5.0593 34.7188 4.97468 34.7974 4.8961Z" fill="white"/>
<path d="M49.2898 6.75185C49.5378 6.89088 49.5801 7.16289 49.4047 7.33214C49.2958 7.4349 49.1809 7.53162 49.0599 7.61624C48.939 7.70087 48.8785 7.80967 48.8845 7.95475C48.8845 8.01519 48.8724 8.0696 48.8603 8.14818C48.7877 8.16631 48.7212 8.19653 48.6486 8.19653C48.4309 8.20258 48.2676 8.30534 48.1224 8.45041C47.9651 8.60153 47.7716 8.73451 47.7897 9.00048C47.8684 9.06697 47.9591 9.07301 48.0559 9.0307C48.2313 8.95816 48.4188 8.89772 48.5881 8.80705C49.447 8.35974 50.2938 7.90639 51.1527 7.45908C51.5217 7.26565 51.8907 7.07827 52.2657 6.89693C52.3745 6.84252 52.5016 6.76394 52.6165 6.87879C52.7254 6.99364 52.7375 7.14476 52.6951 7.29588C52.677 7.36237 52.6286 7.4349 52.5802 7.48326C52.4713 7.59207 52.3503 7.68878 52.2294 7.79154C52.1507 7.85803 52.0661 7.91243 51.9874 7.97288C51.9935 7.99101 52.0056 8.0031 52.0116 8.02124C52.0782 7.99101 52.1507 7.96079 52.2173 7.93057C52.7314 7.67065 53.2516 7.40468 53.7657 7.14476C53.8504 7.10245 53.9351 7.06013 54.0258 7.01782C54.1165 6.97551 54.2193 6.93924 54.298 7.02386C54.3827 7.10849 54.4492 7.22938 54.3887 7.34423C54.3161 7.48326 54.2133 7.61624 54.1165 7.74318C54.0681 7.80363 53.9955 7.85199 53.8988 7.93057C53.9895 7.93661 54.0379 7.95475 54.0802 7.94266C54.5157 7.82781 54.9573 7.719 55.3928 7.59206C55.5077 7.5558 55.6045 7.45908 55.7133 7.39259C55.8343 7.32005 55.9492 7.22334 56.0763 7.18707C56.6388 7.02991 57.2073 6.88484 57.7759 6.75185C57.9997 6.69745 58.0662 6.76394 58.1025 6.9876C58.1267 7.1508 58.0904 7.21729 57.9211 7.26565C57.7517 7.31401 57.5763 7.35028 57.4009 7.39864C57.3465 7.41072 57.2981 7.44095 57.2497 7.45908C57.2497 7.47722 57.2557 7.49535 57.2557 7.51348C57.3706 7.52557 57.4856 7.5558 57.5944 7.5558C58.0178 7.56184 58.4412 7.56789 58.8646 7.5558C60.2921 7.51348 61.7075 7.39259 63.1289 7.26565C63.8063 7.20521 64.4898 7.17498 65.1733 7.1508C65.9535 7.12058 66.7338 7.09036 67.508 7.09036C68.0403 7.09036 68.5726 7.14476 69.1109 7.16894C69.2379 7.17498 69.3589 7.15685 69.4859 7.14476C69.6311 7.13267 69.7762 7.11454 69.9153 7.0964C70.0484 7.35028 70.0484 7.50744 69.9093 7.75527C69.7702 7.75527 69.625 7.77341 69.4798 7.74923C68.7056 7.62833 67.9314 7.59207 67.1512 7.57998C66.6975 7.57393 66.2439 7.54371 65.7963 7.54371C65.5725 7.54371 65.3547 7.56789 65.1309 7.58602C63.891 7.70087 62.651 7.81572 61.405 7.92452C60.5159 7.99706 59.6268 8.05751 58.7376 8.11795C58.2779 8.14818 57.8182 8.1784 57.3585 8.20258C57.1468 8.20862 56.9291 8.20258 56.7114 8.1784C56.5541 8.16027 56.3847 8.13004 56.2396 8.05751C56.0521 7.97288 55.8766 7.96079 55.6831 8.02124C54.921 8.24489 54.1589 8.45645 53.3907 8.66802C53.2637 8.70429 53.1246 8.71033 52.9975 8.71638C52.8161 8.71638 52.7858 8.68615 52.7314 8.51086C52.7133 8.44437 52.683 8.37787 52.6649 8.32347C52.5137 8.26907 52.4229 8.35369 52.3322 8.40205C51.8423 8.66802 51.3584 8.93398 50.8684 9.19995C50.7535 9.2604 50.6326 9.33293 50.4995 9.30875C50.2938 9.06697 50.2938 8.90376 50.4874 8.67406C50.56 8.58339 50.6326 8.49877 50.7051 8.4081C50.693 8.38996 50.6809 8.37787 50.6688 8.35974C50.5902 8.38996 50.5116 8.41414 50.439 8.45645C49.7555 8.79496 49.072 9.1395 48.3825 9.47801C48.2494 9.5445 48.1103 9.59286 47.9651 9.62912C47.6688 9.71375 47.4692 9.61099 47.3361 9.32084C47.2938 9.21808 47.2514 9.11532 47.203 8.98839C47.1183 9.01861 47.0458 9.04883 46.9792 9.07906C46.58 9.2604 46.1869 9.45383 45.7816 9.61099C45.5699 9.69561 45.3401 9.73793 45.1102 9.75606C44.7836 9.78024 44.6203 9.5989 44.6082 9.27249C44.6021 9.03674 44.6929 8.8554 44.8743 8.71033C45.2675 8.40205 45.6969 8.14818 46.1506 7.94266C46.4893 7.79154 46.8341 7.65856 47.1788 7.51348C47.5538 7.35632 47.953 7.30192 48.3523 7.33214C48.57 7.35028 48.7333 7.30192 48.8845 7.13267C48.9994 6.99364 49.1507 6.87879 49.2898 6.75185ZM47.7776 7.97288C47.7655 7.9487 47.7534 7.92452 47.7474 7.90034C47.6748 7.91243 47.5962 7.92452 47.5236 7.9487C46.8583 8.17235 46.2534 8.52295 45.6364 8.84331C45.5397 8.89167 45.4489 8.96421 45.3643 9.03674C45.328 9.06697 45.3098 9.11533 45.2796 9.15764C45.455 9.18786 45.455 9.18786 45.5941 9.13346C46.2897 8.8554 46.9429 8.48668 47.5962 8.124C47.6627 8.07564 47.7172 8.02124 47.7776 7.97288Z" fill="white"/>
<path d="M50.445 5.24681C50.2575 5.26494 50.0458 5.15614 49.9732 5.01711C49.9067 4.89017 49.9732 4.75719 50.1426 4.66047C50.2635 4.58794 50.4087 4.61816 50.4631 4.75114C50.5297 4.9083 50.5781 5.0836 50.445 5.24681Z" fill="white"/>
</g>
<defs>
<clipPath id="clip0">
<rect width="70" height="23" fill="white"/>
</clipPath>
</defs>
</svg>
