<svg width="127" height="82" viewBox="0 0 127 82" fill="none" xmlns="http://www.w3.org/2000/svg">
<path d="M94.9854 55.3712V53.4052H96.9657V55.3712H94.9854Z" fill="white" stroke="white"/>
<path d="M91.3275 60.2379V60.7379H91.8275H97.0466V62.7863H89.2666V47.4732H97.0466V49.5216H91.8275H91.3275V50.0216V50.4336V59.0845V60.2379Z" fill="white" stroke="white"/>
<path d="M51.0049 62.7863V53.2405H53.0658V62.7863H51.0049Z" fill="white" stroke="white"/>
<path d="M50.5048 49.5216H48.1855V47.4732H56.0461V49.5216H53.6463H50.5048Z" fill="white" stroke="white"/>
<path d="M35.5395 57.7662V47.4732H37.6005V62.7863H35.4745L28.7752 52.3064L27.8539 50.8652V52.5757V59.1612H25.793V47.4732H27.9178L34.6173 58.0341L35.5395 59.4878V57.7662Z" fill="white" stroke="white"/>
<path d="M14.6634 62.7863H12.5901L8.20099 51.0819L7.73696 49.8445L7.26569 51.0791L2.79712 62.7863H0.725024L6.54718 47.4732H8.91686L14.6634 62.7863Z" fill="white" stroke="white"/>
<path d="M74.509 53.57H75.009V53.07V50.1921H77.1505V62.7863H75.009V56.1184V55.6184H74.509H69.1927H68.6927V56.1184V60.0675H66.6318V47.4732H68.6927V53.07V53.57H69.1927H74.509Z" fill="white" stroke="white"/>
<path d="M111.385 52.9876V62.7863H109.404V47.4732H112.518L117.142 58.5358L117.608 59.6489L118.066 58.533L122.611 47.4732H125.723V60.0675H123.742V52.9876L122.782 52.7931L118.561 62.7863H116.566L112.345 52.7931L111.385 52.9876Z" fill="white" stroke="white"/>
<path d="M44.3037 39.6405L63.3136 1L82.1623 39.6405" stroke="white" stroke-width="2" stroke-miterlimit="10" stroke-linecap="round" stroke-linejoin="round"/>
<path d="M61.0576 39.6406L64.7629 32.5551L68.146 39.6406" stroke="white" stroke-width="2" stroke-miterlimit="10" stroke-linecap="round" stroke-linejoin="round"/>
<path d="M32.5424 70.0422L27.1455 81H85.1416L79.7448 70.0422" stroke="white" stroke-width="2" stroke-miterlimit="10" stroke-linecap="round" stroke-linejoin="round"/>
<path d="M93.7607 70.0422L99.077 81" stroke="white" stroke-width="2" stroke-miterlimit="10" stroke-linecap="round" stroke-linejoin="round"/>
</svg>
