<svg width="205" height="104" viewBox="0 0 205 104" fill="none" xmlns="http://www.w3.org/2000/svg">
<path d="M46.9361 24.922C46.7961 24.7633 46.6328 24.6233 46.4461 24.502C46.2594 24.3713 46.0494 24.2593 45.8161 24.166C45.5828 24.0727 45.3308 23.998 45.0601 23.942C44.7988 23.886 44.5188 23.858 44.2201 23.858C43.3521 23.858 42.7128 24.026 42.3021 24.362C41.9008 24.6887 41.7001 25.1367 41.7001 25.706C41.7001 26.098 41.7934 26.406 41.9801 26.63C42.1761 26.854 42.4794 27.036 42.8901 27.176C43.3008 27.316 43.8234 27.4607 44.4581 27.61C45.1674 27.7593 45.7788 27.9367 46.2921 28.142C46.8054 28.3473 47.2021 28.6273 47.4821 28.982C47.7621 29.3273 47.9021 29.7987 47.9021 30.396C47.9021 30.8533 47.8134 31.25 47.6361 31.586C47.4588 31.922 47.2114 32.202 46.8941 32.426C46.5768 32.65 46.1988 32.818 45.7601 32.93C45.3214 33.0327 44.8408 33.084 44.3181 33.084C43.8048 33.084 43.3101 33.0327 42.8341 32.93C42.3674 32.818 41.9241 32.6593 41.5041 32.454C41.0841 32.2393 40.6921 31.9687 40.3281 31.642L40.8181 30.844C40.9954 31.0307 41.2054 31.208 41.4481 31.376C41.7001 31.5347 41.9754 31.6793 42.2741 31.81C42.5821 31.9407 42.9088 32.0433 43.2541 32.118C43.6088 32.1833 43.9728 32.216 44.3461 32.216C45.1394 32.216 45.7554 32.0713 46.1941 31.782C46.6421 31.4927 46.8661 31.0633 46.8661 30.494C46.8661 30.0833 46.7541 29.7567 46.5301 29.514C46.3061 29.262 45.9701 29.0567 45.5221 28.898C45.0741 28.7393 44.5234 28.5853 43.8701 28.436C43.1794 28.2773 42.5961 28.1 42.1201 27.904C41.6441 27.708 41.2848 27.4513 41.0421 27.134C40.8088 26.8073 40.6921 26.378 40.6921 25.846C40.6921 25.23 40.8414 24.712 41.1401 24.292C41.4481 23.8627 41.8681 23.5407 42.4001 23.326C42.9321 23.102 43.5434 22.99 44.2341 22.99C44.6728 22.99 45.0788 23.0367 45.4521 23.13C45.8348 23.214 46.1848 23.34 46.5021 23.508C46.8288 23.676 47.1321 23.886 47.4121 24.138L46.9361 24.922ZM51.212 27.96C51.212 27.3533 51.3147 26.7607 51.52 26.182C51.7347 25.594 52.0427 25.062 52.444 24.586C52.8453 24.1007 53.34 23.718 53.928 23.438C54.516 23.1487 55.1833 23.004 55.93 23.004C56.8167 23.004 57.5727 23.2093 58.198 23.62C58.8327 24.0213 59.2993 24.5393 59.598 25.174L58.828 25.65C58.6133 25.2113 58.3427 24.866 58.016 24.614C57.6893 24.3527 57.3393 24.166 56.966 24.054C56.602 23.942 56.238 23.886 55.874 23.886C55.2767 23.886 54.7493 24.0073 54.292 24.25C53.8347 24.4833 53.4473 24.8007 53.13 25.202C52.822 25.594 52.5887 26.0373 52.43 26.532C52.2713 27.0173 52.192 27.512 52.192 28.016C52.192 28.5667 52.2853 29.094 52.472 29.598C52.6587 30.102 52.92 30.55 53.256 30.942C53.592 31.3247 53.984 31.6327 54.432 31.866C54.8893 32.09 55.384 32.202 55.916 32.202C56.2893 32.202 56.672 32.1367 57.064 32.006C57.456 31.8753 57.82 31.6747 58.156 31.404C58.5013 31.1333 58.7767 30.7833 58.982 30.354L59.794 30.774C59.5887 31.2687 59.2713 31.6887 58.842 32.034C58.4127 32.3793 57.932 32.6407 57.4 32.818C56.8773 32.9953 56.364 33.084 55.86 33.084C55.1787 33.084 54.5533 32.9393 53.984 32.65C53.4147 32.3513 52.92 31.9593 52.5 31.474C52.0893 30.9793 51.772 30.4287 51.548 29.822C51.324 29.206 51.212 28.5853 51.212 27.96ZM63.7077 33V23.06H67.9077C68.337 23.06 68.729 23.1487 69.0837 23.326C69.4383 23.5033 69.7463 23.746 70.0077 24.054C70.2783 24.3527 70.4837 24.6887 70.6237 25.062C70.773 25.426 70.8477 25.7993 70.8477 26.182C70.8477 26.658 70.7543 27.106 70.5677 27.526C70.3903 27.946 70.1337 28.3007 69.7977 28.59C69.471 28.8793 69.0837 29.0707 68.6357 29.164L71.0717 33H69.9657L67.6277 29.332H64.6877V33H63.7077ZM64.6877 28.464H67.9357C68.3277 28.464 68.6683 28.3567 68.9577 28.142C69.247 27.9273 69.471 27.6473 69.6297 27.302C69.7883 26.9473 69.8677 26.574 69.8677 26.182C69.8677 25.7807 69.7743 25.412 69.5877 25.076C69.4103 24.7307 69.1677 24.4553 68.8597 24.25C68.561 24.0353 68.225 23.928 67.8517 23.928H64.6877V28.464ZM79.0981 33.07C78.3981 33.07 77.7635 32.93 77.1941 32.65C76.6248 32.37 76.1348 31.992 75.7241 31.516C75.3135 31.0307 74.9961 30.4893 74.7721 29.892C74.5481 29.2853 74.4361 28.6647 74.4361 28.03C74.4361 27.3673 74.5528 26.7373 74.7861 26.14C75.0195 25.5333 75.3461 24.9967 75.7661 24.53C76.1955 24.054 76.6948 23.6807 77.2641 23.41C77.8335 23.13 78.4495 22.99 79.1121 22.99C79.8121 22.99 80.4468 23.1347 81.0161 23.424C81.5855 23.7133 82.0708 24.1007 82.4721 24.586C82.8828 25.0713 83.2001 25.6127 83.4241 26.21C83.6481 26.8073 83.7601 27.4187 83.7601 28.044C83.7601 28.7067 83.6435 29.3413 83.4101 29.948C83.1768 30.5453 82.8501 31.082 82.4301 31.558C82.0101 32.0247 81.5155 32.3933 80.9461 32.664C80.3768 32.9347 79.7608 33.07 79.0981 33.07ZM75.4161 28.03C75.4161 28.5713 75.5048 29.094 75.6821 29.598C75.8595 30.0927 76.1115 30.536 76.4381 30.928C76.7648 31.3107 77.1521 31.6187 77.6001 31.852C78.0575 32.076 78.5568 32.188 79.0981 32.188C79.6675 32.188 80.1761 32.0713 80.6241 31.838C81.0815 31.5953 81.4688 31.278 81.7861 30.886C82.1128 30.4847 82.3601 30.0367 82.5281 29.542C82.6961 29.0473 82.7801 28.5433 82.7801 28.03C82.7801 27.4887 82.6915 26.9707 82.5141 26.476C82.3368 25.9813 82.0801 25.538 81.7441 25.146C81.4175 24.754 81.0301 24.446 80.5821 24.222C80.1341 23.998 79.6395 23.886 79.0981 23.886C78.5381 23.886 78.0295 24.0027 77.5721 24.236C77.1241 24.4693 76.7368 24.7867 76.4101 25.188C76.0928 25.58 75.8455 26.0233 75.6681 26.518C75.5001 27.0127 75.4161 27.5167 75.4161 28.03ZM87.8478 33V23.06H88.8278V32.132H94.5678V33H87.8478ZM98.2499 33V23.06H99.2299V32.132H104.97V33H98.2499ZM114.05 33V23.06H117.424C118.479 23.06 119.356 23.284 120.056 23.732C120.766 24.1707 121.298 24.768 121.652 25.524C122.007 26.2707 122.184 27.1013 122.184 28.016C122.184 29.024 121.988 29.9013 121.596 30.648C121.214 31.3947 120.663 31.9733 119.944 32.384C119.235 32.7947 118.395 33 117.424 33H114.05ZM121.204 28.016C121.204 27.2227 121.055 26.518 120.756 25.902C120.467 25.286 120.042 24.8053 119.482 24.46C118.922 24.1053 118.236 23.928 117.424 23.928H115.03V32.132H117.424C118.246 32.132 118.936 31.95 119.496 31.586C120.056 31.222 120.481 30.732 120.77 30.116C121.06 29.4907 121.204 28.7907 121.204 28.016ZM130.302 33.07C129.602 33.07 128.967 32.93 128.398 32.65C127.829 32.37 127.339 31.992 126.928 31.516C126.517 31.0307 126.2 30.4893 125.976 29.892C125.752 29.2853 125.64 28.6647 125.64 28.03C125.64 27.3673 125.757 26.7373 125.99 26.14C126.223 25.5333 126.55 24.9967 126.97 24.53C127.399 24.054 127.899 23.6807 128.468 23.41C129.037 23.13 129.653 22.99 130.316 22.99C131.016 22.99 131.651 23.1347 132.22 23.424C132.789 23.7133 133.275 24.1007 133.676 24.586C134.087 25.0713 134.404 25.6127 134.628 26.21C134.852 26.8073 134.964 27.4187 134.964 28.044C134.964 28.7067 134.847 29.3413 134.614 29.948C134.381 30.5453 134.054 31.082 133.634 31.558C133.214 32.0247 132.719 32.3933 132.15 32.664C131.581 32.9347 130.965 33.07 130.302 33.07ZM126.62 28.03C126.62 28.5713 126.709 29.094 126.886 29.598C127.063 30.0927 127.315 30.536 127.642 30.928C127.969 31.3107 128.356 31.6187 128.804 31.852C129.261 32.076 129.761 32.188 130.302 32.188C130.871 32.188 131.38 32.0713 131.828 31.838C132.285 31.5953 132.673 31.278 132.99 30.886C133.317 30.4847 133.564 30.0367 133.732 29.542C133.9 29.0473 133.984 28.5433 133.984 28.03C133.984 27.4887 133.895 26.9707 133.718 26.476C133.541 25.9813 133.284 25.538 132.948 25.146C132.621 24.754 132.234 24.446 131.786 24.222C131.338 23.998 130.843 23.886 130.302 23.886C129.742 23.886 129.233 24.0027 128.776 24.236C128.328 24.4693 127.941 24.7867 127.614 25.188C127.297 25.58 127.049 26.0233 126.872 26.518C126.704 27.0127 126.62 27.5167 126.62 28.03ZM142.407 23.13H143.331L144.731 26.658L146.145 23.13H147.083L145.347 27.372L147.251 31.866L150.849 23.06H151.913L147.699 33H146.831L144.745 28.086L142.645 33H141.791L137.591 23.06H138.641L142.253 31.866L144.143 27.372L142.407 23.13ZM156.531 24.866V33H155.551V23.06H156.363L162.887 31.348V23.074H163.867V33H162.957L156.531 24.866Z" fill="white"/>
<circle cx="102" cy="80" r="24" transform="rotate(-90 102 80)" fill="white"/>
<path fill-rule="evenodd" clip-rule="evenodd" d="M102.823 71.7072C102.768 71.3078 102.42 71 102 71C101.542 71 101.17 71.3663 101.17 71.8182V86.1999L95.9187 81.0047L95.8257 80.9253C95.5011 80.687 95.0398 80.7124 94.7444 81.0023C94.4195 81.3212 94.4184 81.8392 94.742 82.1594L101.4 88.7477C101.439 88.787 101.481 88.8224 101.526 88.8536C101.85 89.0766 102.3 89.0452 102.589 88.7593L109.258 82.1593L109.338 82.0674C109.579 81.7466 109.551 81.2921 109.256 81.0023C108.931 80.6834 108.405 80.6845 108.081 81.0047L102.83 86.2012V71.8182L102.823 71.7072Z" fill="#383838"/>
</svg>
