<svg width="16" height="16" viewBox="0 0 16 16" fill="none" xmlns="http://www.w3.org/2000/svg">
<path d="M15.7753 14.2287L12.8091 11.3691C13.9605 9.97383 14.5181 8.20282 14.3672 6.42024C14.2164 4.63766 13.3685 2.97901 11.998 1.78533C10.6275 0.59166 8.83851 -0.0463047 6.9989 0.00261945C5.15928 0.0515436 3.40887 0.783637 2.10758 2.04837C0.806291 3.3131 0.0530336 5.01433 0.00269517 6.80226C-0.0476432 8.59019 0.608763 10.3289 1.83694 11.6609C3.06512 12.9929 4.77172 13.8169 6.60583 13.9636C8.43994 14.1102 10.2621 13.5683 11.6978 12.4492L14.64 15.3088C14.7143 15.3816 14.8028 15.4395 14.9002 15.4789C14.9976 15.5184 15.1021 15.5387 15.2077 15.5387C15.3132 15.5387 15.4177 15.5184 15.5152 15.4789C15.6126 15.4395 15.701 15.3816 15.7753 15.3088C15.9194 15.1639 16 14.9703 16 14.7688C16 14.5672 15.9194 14.3736 15.7753 14.2287ZM7.21243 12.4492C6.10552 12.4492 5.02346 12.1302 4.10309 11.5325C3.18272 10.9348 2.46538 10.0853 2.04178 9.09138C1.61818 8.09745 1.50735 7.00376 1.7233 5.94862C1.93925 4.89347 2.47228 3.92425 3.25499 3.16354C4.0377 2.40282 5.03493 1.88476 6.12058 1.67488C7.20622 1.465 8.33153 1.57272 9.35419 1.98442C10.3768 2.39611 11.2509 3.0933 11.8659 3.98781C12.4809 4.88232 12.8091 5.93398 12.8091 7.0098C12.8091 8.45242 12.2195 9.83596 11.1699 10.8561C10.1203 11.8761 8.69676 12.4492 7.21243 12.4492Z" fill="white"/>
</svg>
