<svg width="48" height="48" viewBox="0 0 48 48" fill="none" xmlns="http://www.w3.org/2000/svg">
<circle cx="24" cy="24" r="24" fill="white"/>
<path fill-rule="evenodd" clip-rule="evenodd" d="M32.2928 24.8229C32.6922 24.7679 33 24.4205 33 24.0001C33 23.5415 32.6337 23.1698 32.1818 23.1698L17.8001 23.1698L22.9953 17.9187L23.0747 17.8257C23.313 17.5011 23.2876 17.0398 22.9977 16.7444C22.6788 16.4195 22.1608 16.4184 21.8406 16.742L15.2523 23.4004C15.213 23.4386 15.1776 23.4806 15.1464 23.526C14.9234 23.8502 14.9548 24.3001 15.2407 24.5889L21.8407 31.2581L21.9326 31.3383C22.2534 31.5787 22.7079 31.551 22.9977 31.2555C23.3166 30.9306 23.3155 30.4049 22.9953 30.0813L17.7988 24.8304L32.1818 24.8304L32.2928 24.8229Z" fill="#383838"/>
</svg>
