 <svg width="48" height="48" viewBox="0 0 48 48" fill="none" xmlns="http://www.w3.org/2000/svg">
<circle cx="24" cy="24" r="24" transform="rotate(-180 24 24)" fill="white"/>
<path fill-rule="evenodd" clip-rule="evenodd" d="M15.7072 23.1771C15.3078 23.2321 15 23.5795 15 23.9999C15 24.4585 15.3663 24.8302 15.8182 24.8302L30.1999 24.8302L25.0047 30.0813L24.9253 30.1743C24.687 30.4989 24.7124 30.9602 25.0023 31.2556C25.3212 31.5805 25.8392 31.5816 26.1594 31.258L32.7477 24.5996C32.787 24.5614 32.8224 24.5194 32.8536 24.474C33.0766 24.1498 33.0452 23.6999 32.7593 23.4111L26.1593 16.7419L26.0674 16.6617C25.7466 16.4213 25.2921 16.449 25.0023 16.7445C24.6834 17.0694 24.6845 17.5951 25.0047 17.9187L30.2012 23.1696L15.8182 23.1696L15.7072 23.1771Z" fill="#383838"/>
</svg>
