<svg width="28" height="24" viewBox="0 0 28 24" fill="none" xmlns="http://www.w3.org/2000/svg">
<path d="M8.78333 24C19.3345 24 25.108 14.7638 25.108 6.76772C25.108 6.50787 25.108 6.24803 25.0968 5.98819C26.2157 5.1378 27.1891 4.06299 27.9612 2.84646C26.9318 3.33071 25.8241 3.64961 24.6604 3.80315C25.8465 3.05906 26.7528 1.86614 27.1891 0.448818C26.0814 1.14567 24.8507 1.64173 23.5415 1.91339C22.4898 0.732283 21.0017 0 19.3569 0C16.1904 0 13.617 2.71653 13.617 6.05905C13.617 6.5315 13.6729 6.99213 13.7624 7.44094C8.99592 7.19291 4.76649 4.77165 1.93569 1.11024C1.44337 2.00787 1.16365 3.04724 1.16365 4.15748C1.16365 6.25984 2.18185 8.11417 3.71473 9.20079C2.77486 9.16535 1.89093 8.8937 1.11889 8.44488C1.11889 8.4685 1.11889 8.49213 1.11889 8.52756C1.11889 11.4567 3.09934 13.9134 5.71755 14.4685C5.23643 14.6102 4.73292 14.6811 4.20704 14.6811C3.83781 14.6811 3.47976 14.6457 3.13291 14.5748C3.86019 16.9843 5.98609 18.7323 8.49241 18.7795C6.52316 20.4094 4.0504 21.378 1.36505 21.378C0.906305 21.378 0.447558 21.3543 0 21.2953C2.5287 22.9961 5.54972 24 8.78333 24Z" fill="white"/>
</svg>
