<svg width="25" height="24" viewBox="0 0 25 24" fill="none" xmlns="http://www.w3.org/2000/svg">
<g clip-path="url(#clip0)">
<path fill-rule="evenodd" clip-rule="evenodd" d="M20.8021 3.48967C18.5505 1.23735 15.5484 0 12.3514 0C5.76847 0 0.405862 5.33713 0.400132 11.8888C0.400132 13.9872 0.950144 16.0285 1.99287 17.8361L0.302734 24L6.63933 22.3464C8.38676 23.2929 10.3519 23.7947 12.3514 23.7947H12.3572C18.9401 23.7947 24.3027 18.4576 24.3084 11.9002C24.3027 8.72416 23.0595 5.73628 20.8021 3.48967ZM12.3514 21.7819C10.5639 21.7819 8.81645 21.3029 7.29246 20.402L6.93152 20.1853L3.17311 21.1661L4.17573 17.5168L3.94083 17.1404C2.94394 15.5666 2.42257 13.7477 2.42257 11.8831C2.42257 6.44334 6.87995 2.00713 12.3572 2.00713C15.0098 2.00713 17.5021 3.0392 19.3813 4.90378C21.2547 6.77406 22.286 9.25446 22.286 11.8945C22.2803 17.3514 17.8229 21.7819 12.3514 21.7819ZM17.8 14.3806C17.5021 14.2324 16.0354 13.5139 15.7603 13.4113C15.4853 13.3143 15.2848 13.263 15.09 13.5595C14.8895 13.856 14.3166 14.5289 14.1447 14.7227C13.9728 14.9223 13.7952 14.9451 13.4973 14.7969C13.1994 14.6486 12.2368 14.335 11.0967 13.32C10.2087 12.5331 9.61282 11.5581 9.43522 11.2616C9.26334 10.9651 9.41803 10.8054 9.56699 10.6572C9.69876 10.526 9.86491 10.3093 10.0139 10.1383C10.1628 9.96721 10.2144 9.84177 10.3118 9.6422C10.4092 9.44262 10.3634 9.27156 10.2889 9.12331C10.2144 8.97505 9.61855 7.50962 9.36647 6.91661C9.12584 6.335 8.87948 6.41483 8.69614 6.40912C8.52426 6.39772 8.32374 6.39772 8.12321 6.39772C7.92269 6.39772 7.60185 6.47185 7.32684 6.76835C7.05183 7.06486 6.28411 7.78332 6.28411 9.24875C6.28411 10.7142 7.35549 12.1226 7.50445 12.3222C7.65341 12.5217 9.6071 15.521 12.6035 16.8097C13.3139 17.1176 13.8697 17.3001 14.3051 17.4369C15.0213 17.665 15.6687 17.6308 16.1843 17.5567C16.7572 17.4711 17.9489 16.8382 18.201 16.1426C18.4474 15.4469 18.4474 14.8539 18.3729 14.7284C18.2984 14.603 18.0979 14.5289 17.8 14.3806Z" fill="#FAFAFA"/>
</g>
<defs>
<clipPath id="clip0">
<rect width="24" height="24" fill="white" transform="translate(0.302734)"/>
</clipPath>
</defs>
</svg>
